<svg xmlns="http://www.w3.org/2000/svg" version="1.1" xmlns:xlink="http://www.w3.org/1999/xlink" xmlns:svgjs="http://svgjs.com/svgjs" width="1000" height="1000"><svg xmlns="http://www.w3.org/2000/svg" version="1.1" xmlns:xlink="http://www.w3.org/1999/xlink" xmlns:svgjs="http://svgjs.dev/svgjs" width="1000" height="1000" viewBox="0 0 1000 1000"><rect width="1000" height="1000" fill="#915eff"></rect><g transform="matrix(0.7,0,0,0.7,150,106.25)"><svg viewBox="0 0 320 360" data-background-color="#915eff" preserveAspectRatio="xMidYMid meet" height="1125" width="1000" xmlns="http://www.w3.org/2000/svg" xmlns:xlink="http://www.w3.org/1999/xlink"><g id="SvgjsG1003" transform="matrix(1,0,0,1,0,0)"><svg viewBox="0 0 320 360" height="360" width="320"><g><svg></svg></g><g><svg viewBox="0 0 320 360" height="360" width="320"><g><path xmlns="http://www.w3.org/2000/svg" d="M320 187.111c0-45.764-20.238-86.866-52.203-114.908-28.043-31.964-69.145-52.203-114.908-52.203-84.302 0-152.889 68.587-152.889 152.889 0 45.753 20.231 86.848 52.185 114.891 28.043 31.975 69.152 52.22 114.926 52.22 0.299 0 0.59-0.021 0.889-0.021 0.299 0 0.59 0.021 0.889 0.021 83.456 0 151.111-67.655 151.111-151.111 0-0.299-0.021-0.59-0.021-0.889 0-0.299 0.021-0.59 0.021-0.889zM59.833 263.097c-15.093-21.255-24.071-47.143-24.256-75.097 0.48-72.928 59.492-131.943 132.423-132.423 27.954 0.185 53.845 9.163 75.097 24.256 24.366 23.627 39.57 56.64 39.57 93.056 0 71.559-58.219 129.778-129.778 129.778-36.416 0-69.429-15.204-93.056-39.57zM3.556 172.889c0-82.343 66.99-149.333 149.333-149.333 35.051 0 67.292 12.167 92.8 32.462-22.98-13.824-49.863-21.796-78.578-21.796-84.302 0-152.889 68.587-152.889 152.889 0 28.708 7.968 55.584 21.785 78.56-20.288-25.5-32.452-57.739-32.451-92.782zM167.111 318.667c-35.84 0-68.363-14.418-92.107-37.743 21.952 15.89 48.864 25.298 77.885 25.298 73.522 0 133.333-59.812 133.333-133.333 0-29.02-9.408-55.932-25.298-77.885 23.324 23.744 37.742 56.267 37.743 92.107 0 72.54-59.015 131.556-131.556 131.556z" fill="#ffffff" fill-rule="nonzero" stroke="none" stroke-width="1" stroke-linecap="butt" stroke-linejoin="miter" stroke-miterlimit="10" stroke-dasharray="" stroke-dashoffset="0" font-family="none" font-weight="none" font-size="none" text-anchor="none" style="mix-blend-mode: normal" data-fill-palette-color="tertiary"></path></g><g transform="matrix(1,0,0,1,64,146.63126843657818)"><svg viewBox="0 0 192 66.73746312684365" height="66.73746312684365" width="192"><g><svg viewBox="0 0 192 66.73746312684365" height="66.73746312684365" width="192"><g><svg viewBox="0 0 192 66.73746312684365" height="66.73746312684365" width="192"><g><svg viewBox="0 0 192 66.73746312684365" height="66.73746312684365" width="192"><g id="SvgjsG1002"><svg viewBox="0 0 192 66.73746312684365" height="66.73746312684365" width="192" id="SvgjsSvg1001"><g><svg viewBox="0 0 192 66.73746312684365" height="66.73746312684365" width="192"><g transform="matrix(1,0,0,1,0,0)"><svg width="192" viewBox="0.6500000357627869 -34.95000076293945 101.68999481201172 35.35000228881836" height="66.73746312684365" data-palette-color="#ffffff"><path d="M13.5-34.5L17.25-34.5Q17.7-34.5 18.07-34.25 18.45-34 18.55-33.55L18.55-33.55 30.1 0 26.7 0 17-29.1Q16.8-29.8 16.55-30.53 16.3-31.25 16.1-31.9L16.1-31.9 14.65-31.9Q14.45-31.25 14.23-30.53 14-29.8 13.75-29.1L13.75-29.1 4.05 0 0.65 0 12.2-33.55Q12.35-34 12.7-34.25 13.05-34.5 13.5-34.5L13.5-34.5ZM6.6-14.3L24.1-14.3 24.1-11.45 6.6-11.45 6.6-14.3ZM46.05-34.9L46.05-34.9Q50.25-34.9 52.72-34.13 55.2-33.35 56.3-31.4 57.4-29.45 57.4-25.9L57.4-25.9Q57.4-22.2 56.02-20.25 54.65-18.3 51.55-18L51.55-18 51.55-17.8Q55.4-17.45 56.92-15.1 58.45-12.75 58.45-8.6L58.45-8.6Q58.45-5.05 57.37-3.1 56.3-1.15 53.9-0.38 51.5 0.4 47.6 0.4L47.6 0.4Q44.75 0.4 42.72 0.38 40.7 0.35 39 0.25 37.3 0.15 35.4 0L35.4 0 36.1-2.6Q37.15-2.55 40.15-2.5 43.15-2.45 47.15-2.45L47.15-2.45Q50.15-2.45 51.87-2.98 53.6-3.5 54.35-4.93 55.1-6.35 55.1-9.1L55.1-9.1Q55.1-12.05 54.32-13.65 53.55-15.25 51.72-15.9 49.9-16.55 46.75-16.6L46.75-16.6 36.05-16.6 36.05-19.15 46.75-19.15Q49.5-19.2 51.12-19.73 52.75-20.25 53.47-21.65 54.2-23.05 54.2-25.6L54.2-25.6Q54.2-28.25 53.42-29.65 52.65-31.05 50.82-31.55 49-32.05 45.9-32.05L45.9-32.05Q43.55-32.05 41.65-32.05 39.75-32.05 38.35-32.02 36.95-32 36.1-31.9L36.1-31.9 35.4-34.5Q37.05-34.7 38.55-34.77 40.05-34.85 41.82-34.88 43.6-34.9 46.05-34.9ZM35.4-34.5L38.6-34.5 38.6 0 35.4 0 35.4-34.5ZM66.25-34.5L69.5-34.5 69.5 0 66.25 0 66.25-34.5ZM90.39-34.95L90.39-34.95Q94.24-34.95 96.59-34.08 98.94-33.2 100.02-31.08 101.09-28.95 101.09-25.05L101.09-25.05Q101.09-22.15 100.44-20.28 99.79-18.4 98.39-17.4 96.99-16.4 94.74-16.05L94.74-16.05 94.74-15.85Q95.59-15.6 96.39-14.95 97.19-14.3 97.84-13.3 98.49-12.3 98.84-10.95L98.84-10.95 102.34 0 98.84 0 95.54-10.85Q94.84-13 93.62-13.9 92.39-14.8 90.54-14.8L90.54-14.8Q87.59-14.8 85.32-14.83 83.04-14.85 81.54-14.9 80.04-14.95 79.29-15L79.29-15 79.44-17.65 90.29-17.65Q93.09-17.7 94.72-18.32 96.34-18.95 97.04-20.53 97.74-22.1 97.74-24.9L97.74-24.9Q97.74-27.75 97.04-29.3 96.34-30.85 94.72-31.45 93.09-32.05 90.29-32.05L90.29-32.05Q86.29-32.05 83.39-32.02 80.49-32 79.49-31.95L79.49-31.95 78.79-34.5Q80.64-34.7 82.24-34.8 83.84-34.9 85.77-34.93 87.69-34.95 90.39-34.95ZM78.79-34.5L82.04-34.5 82.04 0 78.79 0 78.79-34.5Z" opacity="1" transform="matrix(1,0,0,1,0,0)" fill="#ffffff" class="undefined-text-0" data-fill-palette-color="primary" id="SvgjsPath1000"></path></svg></g></svg></g></svg></g></svg></g><g></g></svg></g></svg></g></svg></g></svg></g><defs></defs></svg><rect width="320" height="360" fill="none" stroke="none" visibility="hidden"></rect></g></svg></g></svg><style>@media (prefers-color-scheme: light) { :root { filter: none; } }
</style></svg>